<?xml version="1.0" encoding="UTF-8"?>
<svg id="_0" data-name="0" xmlns="http://www.w3.org/2000/svg" width="1920" height="1080" viewBox="0 0 1920 1080">
  <defs>
    <style>
      .cls-1 {
        fill: none;
      }

      .cls-1, .cls-2 {
        stroke: #000;
        stroke-linecap: round;
        stroke-linejoin: round;
        stroke-width: .71px;
      }

      .cls-2 {
        fill: #fff;
      }
    </style>
  </defs>
  <g id="LWPOLYLINE">
    <polygon class="cls-1" points="621.09 513.47 621.09 503.47 467.09 503.47 467.09 513.47 464.09 513.47 464.09 533.47 467.09 533.47 467.09 630.47 464.09 630.47 464.09 650.47 467.09 650.47 467.09 660.47 621.09 660.47 621.09 650.47 624.09 650.47 624.09 630.47 621.09 630.47 621.09 533.47 624.09 533.47 624.09 513.47 621.09 513.47"/>
  </g>
  <g id="LWPOLYLINE-2" data-name="LWPOLYLINE">
    <polygon class="cls-1" points="631.09 346.47 621.09 346.47 621.09 500.47 631.09 500.47 631.09 503.47 651.09 503.47 651.09 500.47 671.09 500.47 671.09 503.47 690.47 503.47 690.47 500.47 701.62 500.47 701.62 346.47 690.47 346.47 690.47 343.47 671.09 343.47 671.09 346.47 651.09 346.47 651.09 343.47 631.09 343.47 631.09 346.47"/>
  </g>
  <g id="LWPOLYLINE-3" data-name="LWPOLYLINE">
    <polygon class="cls-1" points="821.09 655.47 821.09 660.47 975.09 660.47 975.09 655.47 978.09 655.47 978.09 658.97 981.09 658.97 981.09 645.47 975.09 645.47 975.09 638.47 978.09 638.47 978.09 641.97 981.09 641.97 981.09 628.47 975.09 628.47 975.09 623.47 821.09 623.47 821.09 628.47 818.09 628.47 818.09 638.47 821.09 638.47 821.09 645.47 818.09 645.47 818.09 655.47 821.09 655.47"/>
  </g>
  <g>
    <g id="LINE">
      <line class="cls-1" x1="818.09" y1="628.47" x2="821.09" y2="628.47"/>
    </g>
    <g id="LINE-2" data-name="LINE">
      <line class="cls-1" x1="821.09" y1="645.47" x2="821.09" y2="638.47"/>
    </g>
    <g id="LINE-3" data-name="LINE">
      <line class="cls-1" x1="821.09" y1="638.47" x2="818.09" y2="638.47"/>
    </g>
    <g id="LINE-4" data-name="LINE">
      <line class="cls-1" x1="818.09" y1="638.47" x2="818.09" y2="628.47"/>
    </g>
    <g id="LINE-5" data-name="LINE">
      <line class="cls-1" x1="741.09" y1="620.47" x2="736.09" y2="611.81"/>
    </g>
    <g id="LINE-6" data-name="LINE">
      <line class="cls-1" x1="736.09" y1="611.81" x2="733.49" y2="613.31"/>
    </g>
    <g id="LINE-7" data-name="LINE">
      <line class="cls-1" x1="733.49" y1="613.31" x2="723.49" y2="595.98"/>
    </g>
    <g id="LINE-8" data-name="LINE">
      <line class="cls-1" x1="723.49" y1="595.98" x2="726.09" y2="594.48"/>
    </g>
    <g id="LINE-9" data-name="LINE">
      <line class="cls-1" x1="701.09" y1="500.47" x2="690.24" y2="500.47"/>
    </g>
    <g id="ARC">
      <path class="cls-1" d="M690.24,500.47c.06,1,.14,2,.23,3"/>
    </g>
    <g id="LINE-10" data-name="LINE">
      <line class="cls-1" x1="690.47" y1="503.47" x2="671.09" y2="503.47"/>
    </g>
    <g id="LINE-11" data-name="LINE">
      <line class="cls-1" x1="671.09" y1="503.47" x2="671.09" y2="500.47"/>
    </g>
    <g id="LINE-12" data-name="LINE">
      <line class="cls-1" x1="624.09" y1="630.47" x2="624.09" y2="650.47"/>
    </g>
    <g id="LINE-13" data-name="LINE">
      <line class="cls-1" x1="624.09" y1="650.47" x2="621.09" y2="650.47"/>
    </g>
    <g id="LINE-14" data-name="LINE">
      <line class="cls-1" x1="621.09" y1="650.47" x2="621.09" y2="660.47"/>
    </g>
    <g id="LINE-15" data-name="LINE">
      <line class="cls-1" x1="621.09" y1="630.47" x2="624.09" y2="630.47"/>
    </g>
    <g id="LINE-16" data-name="LINE">
      <line class="cls-1" x1="690.99" y1="539.69" x2="693.59" y2="538.19"/>
    </g>
    <g id="LINE-17" data-name="LINE">
      <line class="cls-1" x1="693.59" y1="538.19" x2="691.09" y2="533.86"/>
    </g>
    <g id="LINE-18" data-name="LINE">
      <line class="cls-1" x1="703.59" y1="555.51" x2="700.99" y2="557.01"/>
    </g>
    <g id="LINE-19" data-name="LINE">
      <line class="cls-1" x1="700.99" y1="557.01" x2="690.99" y2="539.69"/>
    </g>
    <g id="LINE-20" data-name="LINE">
      <line class="cls-1" x1="821.09" y1="620.47" x2="811.09" y2="620.47"/>
    </g>
    <g id="LINE-21" data-name="LINE">
      <line class="cls-1" x1="811.09" y1="620.47" x2="811.09" y2="623.47"/>
    </g>
    <g id="LINE-22" data-name="LINE">
      <line class="cls-1" x1="811.09" y1="623.47" x2="791.09" y2="623.47"/>
    </g>
    <g id="LINE-23" data-name="LINE">
      <line class="cls-1" x1="791.09" y1="623.47" x2="791.09" y2="620.47"/>
    </g>
    <g id="LINE-24" data-name="LINE">
      <line class="cls-1" x1="699.01" y1="505.93" x2="701.96" y2="505.41"/>
    </g>
    <g id="LINE-25" data-name="LINE">
      <line class="cls-1" x1="704.22" y1="518.22" x2="703.7" y2="515.26"/>
    </g>
    <g id="LINE-26" data-name="LINE">
      <line class="cls-1" x1="703.7" y1="515.26" x2="700.74" y2="515.78"/>
    </g>
    <g id="LINE-27" data-name="LINE">
      <line class="cls-1" x1="700.74" y1="515.78" x2="699.01" y2="505.93"/>
    </g>
    <g id="LINE-28" data-name="LINE">
      <line class="cls-1" x1="751.09" y1="620.47" x2="741.09" y2="620.47"/>
    </g>
    <g id="LINE-29" data-name="LINE">
      <line class="cls-1" x1="771.09" y1="620.47" x2="771.09" y2="623.47"/>
    </g>
    <g id="LINE-30" data-name="LINE">
      <line class="cls-1" x1="771.09" y1="623.47" x2="751.09" y2="623.47"/>
    </g>
    <g id="LINE-31" data-name="LINE">
      <line class="cls-1" x1="751.09" y1="623.47" x2="751.09" y2="620.47"/>
    </g>
    <g id="LINE-32" data-name="LINE">
      <line class="cls-1" x1="621.09" y1="513.47" x2="624.09" y2="513.47"/>
    </g>
    <g id="LINE-33" data-name="LINE">
      <line class="cls-1" x1="624.09" y1="513.47" x2="624.09" y2="533.47"/>
    </g>
    <g id="LINE-34" data-name="LINE">
      <line class="cls-1" x1="624.09" y1="533.47" x2="621.09" y2="533.47"/>
    </g>
    <g id="LINE-35" data-name="LINE">
      <line class="cls-1" x1="621.09" y1="533.47" x2="621.09" y2="630.47"/>
    </g>
    <g id="LINE-36" data-name="LINE">
      <line class="cls-1" x1="631.09" y1="500.47" x2="621.09" y2="500.47"/>
    </g>
    <g id="LINE-37" data-name="LINE">
      <line class="cls-1" x1="651.09" y1="500.47" x2="651.09" y2="503.47"/>
    </g>
    <g id="LINE-38" data-name="LINE">
      <line class="cls-1" x1="651.09" y1="503.47" x2="631.09" y2="503.47"/>
    </g>
    <g id="LINE-39" data-name="LINE">
      <line class="cls-1" x1="631.09" y1="503.47" x2="631.09" y2="500.47"/>
    </g>
    <g id="LINE-40" data-name="LINE">
      <line class="cls-1" x1="821.09" y1="660.47" x2="821.09" y2="655.47"/>
    </g>
    <g id="LINE-41" data-name="LINE">
      <line class="cls-1" x1="821.09" y1="655.47" x2="818.09" y2="655.47"/>
    </g>
    <g id="LINE-42" data-name="LINE">
      <line class="cls-1" x1="818.09" y1="655.47" x2="818.09" y2="645.47"/>
    </g>
    <g id="LINE-43" data-name="LINE">
      <line class="cls-1" x1="818.09" y1="645.47" x2="821.09" y2="645.47"/>
    </g>
    <g id="LINE-44" data-name="LINE">
      <line class="cls-1" x1="621.09" y1="660.47" x2="821.09" y2="660.47"/>
    </g>
    <g id="LINE-45" data-name="LINE">
      <line class="cls-1" x1="821.09" y1="628.47" x2="821.09" y2="620.47"/>
    </g>
    <g id="LINE-46" data-name="LINE">
      <line class="cls-1" x1="791.09" y1="620.47" x2="771.09" y2="620.47"/>
    </g>
    <g id="LINE-47" data-name="LINE">
      <line class="cls-1" x1="726.09" y1="594.48" x2="703.59" y2="555.51"/>
    </g>
    <g id="LINE-48" data-name="LINE">
      <line class="cls-1" x1="691.09" y1="533.86" x2="704.22" y2="518.22"/>
    </g>
    <g id="LINE-49" data-name="LINE">
      <line class="cls-1" x1="701.96" y1="505.41" x2="701.09" y2="500.47"/>
    </g>
    <g id="LINE-50" data-name="LINE">
      <line class="cls-1" x1="671.09" y1="500.47" x2="651.09" y2="500.47"/>
    </g>
    <g id="LINE-51" data-name="LINE">
      <line class="cls-1" x1="621.09" y1="500.47" x2="621.09" y2="513.47"/>
    </g>
  </g>
  <g>
    <g id="LINE-52" data-name="LINE">
      <line class="cls-2" x1="267.09" y1="628.47" x2="270.09" y2="628.47"/>
    </g>
    <g id="LINE-53" data-name="LINE">
      <line class="cls-2" x1="267.09" y1="638.47" x2="267.09" y2="645.47"/>
    </g>
    <g id="LINE-54" data-name="LINE">
      <line class="cls-2" x1="270.09" y1="638.47" x2="267.09" y2="638.47"/>
    </g>
    <g id="LINE-55" data-name="LINE">
      <line class="cls-2" x1="270.09" y1="628.47" x2="270.09" y2="638.47"/>
    </g>
    <g id="LINE-56" data-name="LINE">
      <line class="cls-2" x1="352.09" y1="611.81" x2="347.09" y2="620.47"/>
    </g>
    <g id="LINE-57" data-name="LINE">
      <line class="cls-2" x1="354.69" y1="613.31" x2="352.09" y2="611.81"/>
    </g>
    <g id="LINE-58" data-name="LINE">
      <line class="cls-2" x1="364.69" y1="595.98" x2="354.69" y2="613.31"/>
    </g>
    <g id="LINE-59" data-name="LINE">
      <line class="cls-2" x1="362.09" y1="594.48" x2="364.69" y2="595.98"/>
    </g>
    <g id="LINE-60" data-name="LINE">
      <line class="cls-2" x1="397.93" y1="500.47" x2="387.09" y2="500.47"/>
    </g>
    <g id="ARC-2" data-name="ARC">
      <path class="cls-2" d="M397.7,503.47c.09-1,.16-2,.23-3"/>
    </g>
    <g id="LINE-61" data-name="LINE">
      <line class="cls-2" x1="417.09" y1="503.47" x2="397.7" y2="503.47"/>
    </g>
    <g id="LINE-62" data-name="LINE">
      <line class="cls-2" x1="417.09" y1="500.47" x2="417.09" y2="503.47"/>
    </g>
    <g id="LINE-63" data-name="LINE">
      <line class="cls-2" x1="464.09" y1="650.47" x2="464.09" y2="630.47"/>
    </g>
    <g id="LINE-64" data-name="LINE">
      <line class="cls-2" x1="467.09" y1="650.47" x2="464.09" y2="650.47"/>
    </g>
    <g id="LINE-65" data-name="LINE">
      <line class="cls-2" x1="467.09" y1="660.47" x2="467.09" y2="650.47"/>
    </g>
    <g id="LINE-66" data-name="LINE">
      <line class="cls-2" x1="464.09" y1="630.47" x2="467.09" y2="630.47"/>
    </g>
    <g id="LINE-67" data-name="LINE">
      <line class="cls-2" x1="394.59" y1="538.19" x2="397.19" y2="539.69"/>
    </g>
    <g id="LINE-68" data-name="LINE">
      <line class="cls-2" x1="397.09" y1="533.86" x2="394.59" y2="538.19"/>
    </g>
    <g id="LINE-69" data-name="LINE">
      <line class="cls-2" x1="387.19" y1="557.01" x2="384.59" y2="555.51"/>
    </g>
    <g id="LINE-70" data-name="LINE">
      <line class="cls-2" x1="397.19" y1="539.69" x2="387.19" y2="557.01"/>
    </g>
    <g id="LINE-71" data-name="LINE">
      <line class="cls-2" x1="277.09" y1="620.47" x2="267.09" y2="620.47"/>
    </g>
    <g id="LINE-72" data-name="LINE">
      <line class="cls-2" x1="277.09" y1="623.47" x2="277.09" y2="620.47"/>
    </g>
    <g id="LINE-73" data-name="LINE">
      <line class="cls-2" x1="297.09" y1="623.47" x2="277.09" y2="623.47"/>
    </g>
    <g id="LINE-74" data-name="LINE">
      <line class="cls-2" x1="297.09" y1="620.47" x2="297.09" y2="623.47"/>
    </g>
    <g id="LINE-75" data-name="LINE">
      <line class="cls-2" x1="386.21" y1="505.41" x2="389.17" y2="505.93"/>
    </g>
    <g id="LINE-76" data-name="LINE">
      <line class="cls-2" x1="384.48" y1="515.26" x2="383.96" y2="518.22"/>
    </g>
    <g id="LINE-77" data-name="LINE">
      <line class="cls-2" x1="387.43" y1="515.78" x2="384.48" y2="515.26"/>
    </g>
    <g id="LINE-78" data-name="LINE">
      <line class="cls-2" x1="389.17" y1="505.93" x2="387.43" y2="515.78"/>
    </g>
    <g id="LINE-79" data-name="LINE">
      <line class="cls-2" x1="347.09" y1="620.47" x2="337.09" y2="620.47"/>
    </g>
    <g id="LINE-80" data-name="LINE">
      <line class="cls-2" x1="317.09" y1="623.47" x2="317.09" y2="620.47"/>
    </g>
    <g id="LINE-81" data-name="LINE">
      <line class="cls-2" x1="337.09" y1="623.47" x2="317.09" y2="623.47"/>
    </g>
    <g id="LINE-82" data-name="LINE">
      <line class="cls-2" x1="337.09" y1="620.47" x2="337.09" y2="623.47"/>
    </g>
    <g id="LINE-83" data-name="LINE">
      <line class="cls-2" x1="464.09" y1="513.47" x2="467.09" y2="513.47"/>
    </g>
    <g id="LINE-84" data-name="LINE">
      <line class="cls-2" x1="464.09" y1="533.47" x2="464.09" y2="513.47"/>
    </g>
    <g id="LINE-85" data-name="LINE">
      <line class="cls-2" x1="467.09" y1="533.47" x2="464.09" y2="533.47"/>
    </g>
    <g id="LINE-86" data-name="LINE">
      <line class="cls-2" x1="467.09" y1="630.47" x2="467.09" y2="533.47"/>
    </g>
    <g id="LINE-87" data-name="LINE">
      <line class="cls-2" x1="467.09" y1="500.47" x2="457.09" y2="500.47"/>
    </g>
    <g id="LINE-88" data-name="LINE">
      <line class="cls-2" x1="437.09" y1="503.47" x2="437.09" y2="500.47"/>
    </g>
    <g id="LINE-89" data-name="LINE">
      <line class="cls-2" x1="457.09" y1="503.47" x2="437.09" y2="503.47"/>
    </g>
    <g id="LINE-90" data-name="LINE">
      <line class="cls-2" x1="457.09" y1="500.47" x2="457.09" y2="503.47"/>
    </g>
    <g id="LINE-91" data-name="LINE">
      <line class="cls-2" x1="267.09" y1="655.47" x2="267.09" y2="660.47"/>
    </g>
    <g id="LINE-92" data-name="LINE">
      <line class="cls-2" x1="270.09" y1="655.47" x2="267.09" y2="655.47"/>
    </g>
    <g id="LINE-93" data-name="LINE">
      <line class="cls-2" x1="270.09" y1="645.47" x2="270.09" y2="655.47"/>
    </g>
    <g id="LINE-94" data-name="LINE">
      <line class="cls-2" x1="267.09" y1="645.47" x2="270.09" y2="645.47"/>
    </g>
    <g id="LINE-95" data-name="LINE">
      <line class="cls-2" x1="267.09" y1="660.47" x2="467.09" y2="660.47"/>
    </g>
    <g id="LINE-96" data-name="LINE">
      <line class="cls-2" x1="267.09" y1="620.47" x2="267.09" y2="628.47"/>
    </g>
    <g id="LINE-97" data-name="LINE">
      <line class="cls-2" x1="317.09" y1="620.47" x2="297.09" y2="620.47"/>
    </g>
    <g id="LINE-98" data-name="LINE">
      <line class="cls-2" x1="384.59" y1="555.51" x2="362.09" y2="594.48"/>
    </g>
    <g id="LINE-99" data-name="LINE">
      <line class="cls-2" x1="383.96" y1="518.22" x2="397.09" y2="533.86"/>
    </g>
    <g id="LINE-100" data-name="LINE">
      <line class="cls-2" x1="387.09" y1="500.47" x2="386.21" y2="505.41"/>
    </g>
    <g id="LINE-101" data-name="LINE">
      <line class="cls-2" x1="437.09" y1="500.47" x2="417.09" y2="500.47"/>
    </g>
    <g id="LINE-102" data-name="LINE">
      <line class="cls-2" x1="467.09" y1="513.47" x2="467.09" y2="500.47"/>
    </g>
  </g>
  <g>
    <g id="LINE-103" data-name="LINE">
      <line class="cls-1" x1="716.59" y1="346.47" x2="714.62" y2="346.47"/>
    </g>
    <g id="LINE-104" data-name="LINE">
      <line class="cls-1" x1="714.62" y1="346.47" x2="714.62" y2="343.47"/>
    </g>
    <g id="LINE-105" data-name="LINE">
      <line class="cls-1" x1="714.62" y1="343.47" x2="704.62" y2="343.47"/>
    </g>
    <g id="LINE-106" data-name="LINE">
      <line class="cls-1" x1="704.62" y1="343.47" x2="704.62" y2="346.47"/>
    </g>
    <g id="LINE-107" data-name="LINE">
      <line class="cls-1" x1="701.62" y1="346.47" x2="701.62" y2="500.47"/>
    </g>
    <g id="LINE-108" data-name="LINE">
      <line class="cls-1" x1="714.62" y1="500.47" x2="716.59" y2="500.47"/>
    </g>
    <g id="LINE-109" data-name="LINE">
      <line class="cls-1" x1="704.62" y1="500.47" x2="704.62" y2="503.47"/>
    </g>
    <g id="LINE-110" data-name="LINE">
      <line class="cls-1" x1="704.62" y1="503.47" x2="714.62" y2="503.47"/>
    </g>
    <g id="LINE-111" data-name="LINE">
      <line class="cls-1" x1="714.62" y1="503.47" x2="714.62" y2="500.47"/>
    </g>
    <g id="LINE-112" data-name="LINE">
      <line class="cls-1" x1="716.59" y1="500.47" x2="716.59" y2="346.47"/>
    </g>
    <g id="LINE-113" data-name="LINE">
      <line class="cls-1" x1="704.62" y1="346.47" x2="701.62" y2="346.47"/>
    </g>
    <g id="LINE-114" data-name="LINE">
      <line class="cls-1" x1="701.62" y1="500.47" x2="704.62" y2="500.47"/>
    </g>
  </g>
  <g>
    <g id="LINE-115" data-name="LINE">
      <line class="cls-1" x1="874.42" y1="544.8" x2="869.49" y2="536.1"/>
    </g>
    <g id="LINE-116" data-name="LINE">
      <line class="cls-1" x1="869.49" y1="536.1" x2="872.09" y2="534.62"/>
    </g>
    <g id="LINE-117" data-name="LINE">
      <line class="cls-1" x1="872.09" y1="534.62" x2="862.22" y2="517.23"/>
    </g>
    <g id="LINE-118" data-name="LINE">
      <line class="cls-1" x1="862.22" y1="517.23" x2="859.61" y2="518.71"/>
    </g>
    <g id="LINE-119" data-name="LINE">
      <line class="cls-1" x1="837.4" y1="479.58" x2="840" y2="478.09"/>
    </g>
    <g id="LINE-120" data-name="LINE">
      <line class="cls-1" x1="830.13" y1="460.7" x2="827.52" y2="462.18"/>
    </g>
    <g id="LINE-121" data-name="LINE">
      <line class="cls-1" x1="822.58" y1="453.49" x2="688.66" y2="529.52"/>
    </g>
    <g id="LINE-122" data-name="LINE">
      <line class="cls-1" x1="735.56" y1="612.13" x2="740.5" y2="620.83"/>
    </g>
    <g id="LINE-123" data-name="LINE">
      <line class="cls-1" x1="693.6" y1="538.21" x2="690.99" y2="539.69"/>
    </g>
    <g id="LINE-124" data-name="LINE">
      <line class="cls-1" x1="690.99" y1="539.69" x2="700.86" y2="557.09"/>
    </g>
    <g id="LINE-125" data-name="LINE">
      <line class="cls-1" x1="700.86" y1="557.09" x2="703.47" y2="555.6"/>
    </g>
    <g id="LINE-126" data-name="LINE">
      <line class="cls-1" x1="725.69" y1="594.74" x2="723.08" y2="596.22"/>
    </g>
    <g id="LINE-127" data-name="LINE">
      <line class="cls-1" x1="732.95" y1="613.61" x2="735.56" y2="612.13"/>
    </g>
    <g id="LINE-128" data-name="LINE">
      <line class="cls-1" x1="740.5" y1="620.83" x2="874.42" y2="544.8"/>
    </g>
    <g id="LINE-129" data-name="LINE">
      <line class="cls-1" x1="859.61" y1="518.71" x2="837.4" y2="479.58"/>
    </g>
    <g id="LINE-130" data-name="LINE">
      <line class="cls-1" x1="840" y1="478.09" x2="830.13" y2="460.7"/>
    </g>
    <g id="LINE-131" data-name="LINE">
      <line class="cls-1" x1="827.52" y1="462.18" x2="822.58" y2="453.49"/>
    </g>
    <g id="LINE-132" data-name="LINE">
      <line class="cls-1" x1="688.66" y1="529.52" x2="693.6" y2="538.21"/>
    </g>
    <g id="LINE-133" data-name="LINE">
      <line class="cls-1" x1="703.47" y1="555.6" x2="725.69" y2="594.74"/>
    </g>
    <g id="LINE-134" data-name="LINE">
      <line class="cls-1" x1="723.08" y1="596.22" x2="732.95" y2="613.61"/>
    </g>
    <g id="LWPOLYLINE-4" data-name="LWPOLYLINE">
      <rect class="cls-1" x="727.04" y="499.16" width="109" height="76" transform="translate(-163.31 455.87) rotate(-29.58)"/>
    </g>
  </g>
  <g>
    <g id="LWPOLYLINE-5" data-name="LWPOLYLINE">
      <polygon class="cls-1" points="347.09 466.47 337.09 466.47 337.09 463.47 317.09 463.47 317.09 466.47 297.09 466.47 297.09 463.47 277.09 463.47 277.09 466.47 267.09 466.47 267.09 620.47 277.09 620.47 277.09 623.47 297.09 623.47 297.09 620.47 317.09 620.47 317.09 623.47 337.09 623.47 337.09 620.47 347.09 620.47 347.09 466.47"/>
    </g>
    <g id="CIRCLE">
      <circle class="cls-1" cx="307.09" cy="506.47" r="3"/>
    </g>
    <g id="CIRCLE-2" data-name="CIRCLE">
      <circle class="cls-1" cx="317.09" cy="570.47" r="11.75"/>
    </g>
    <g id="CIRCLE-3" data-name="CIRCLE">
      <circle class="cls-1" cx="292.09" cy="590.47" r="11.75"/>
    </g>
  </g>
</svg>